<?xml version="1.0" encoding="UTF-8"?><svg id="a" xmlns="http://www.w3.org/2000/svg" width="139.1353" height="54.1223" viewBox="0 0 139.1353 54.1223"><path d="m6.6773,16.1255c2.8788-.8263,2.2416,1.6289,3.6379,2.1424,1.2225.4193,3.0295-.8886,4.2882.0456,1.1298.8733.9234,2.1843,1.4586,2.8252.6815.8192,1.106,1.7969,1.0856,3.2802-.0701,1.6911-1.0101,2.9107-2.2877,3.7399-1.5675,1.0321-1.2212,2.0208-2.0714,3.3071-1.0342,1.3934-3.1049,2.5405-4.4709,2.5022-1.607-.0421-1.4905-1.4197-2.7188-1.8781-1.15-.47-2.0707.066-2.7247-.8372-.7496-1.0095-.6206-2.0292-.7828-3.1251-.1738-1.1747-.9901-3.1749-.6373-4.3071.3904-1.4181,1.552-1.9503,2.4413-3.2424.7947-1.1176.1659-3.7458,2.782-4.4527Zm-.1674,5.6266c-2.4885.4882-2.6175,7.1891-.0289,7.6467,2.5435.4237,3.3353-1.2542,4.8887-1.8439,3.3121-1.4107,2.9462-5.2377.8944-5.8541-1.3457-.4411-1.8157.709-3.0368.5693-1.0529-.0841-1.7388-.6628-2.7174-.518Z" fill="#fff" stroke-width="0"/><path d="m24.7938,8.7634c.081,1.6282-1.0595,3.1174-.4128,3.7019,1.0573.924,2.4688-1.1654,3.7507-1.1552,2.1606.0006,1.0881,3.8406-1.2426,4.5853-1.3746.4438-3.4077.2244-3.2615,2.5631.1028,1.5056,1.1379,2.5528,1.3029,4.2086.1767,1.7345-2.0989,4.4721-1.0334,4.9147,1.6605.6743,3.2954-3.6886,5.1516-4.1232,1.8562-.4351,2.2777,2.1433.8711,3.9922-1.2072,1.579-1.8756,1.1177-2.9065,1.9903-.853.7264-1.6786,3.5298-4.0802,3.5249-1.3993.0072-2.2547-.9068-2.356-2.1322-.1086-1.5442.6749-2.7406.5794-3.9269-.0666-.9902-.8162-1.9997-.89-3.3092-.069-1.5505,1.0464-3.4758,1.0218-4.9929-.0043-.8395-.9031-1.5066-1.5122-1.2965-1.0284.3521-1.3414,1.4789-2.931,1.5542-1.3095.0733-2.1808-1.7583.2035-2.9512,1.1167-.5656.8328-1.4036,1.8708-1.9575.927-.497,1.6346-.0415,2.2017-.8056.7675-1.0341-.1476-2.6189-.3167-4.0347-.3157-2.674,3.7968-4.0827,3.9893-.3499Z" fill="#fff" stroke-width="0"/><path d="m34.8742,4.1508c1.3709-1.2833,1.9264-3.2062,3.4204-3.3873,1.18-.1346,1.4312.7488,1.96,1.3507.4786.5294,1.2688.7323,1.347,1.8012.1072,1.2645-1.3955,1.9272-1.8526,3.4351-.4077,1.3007.6132,2.7899.133,4.1413-.4251,1.1834-2.0467,3.7442-.8001,4.5998,1.337.9226,2.406-1.3161,3.7551-2.4763,1.3878-1.1654,3.715-.3093,3.3622,1.9033s-1.4753,2.7391-1.372,4.2441c.0608.9515.5043,1.2463.5805,2.0351.083.8278-.4615,2.829.3447,2.8696.969.057,1.4482-1.5747,2.6442-1.8716,1.3534-.3202,2.074,1.5737,1.4798,2.7021-.4039.7799-1.0753.8393-1.5661,1.3117-.4898.4728-.6937,1.2631-1.3303,1.5572-.709.3453-1.5109.0636-2.3605.2693-.7323.1883-1.3385.9582-2.1886,1.1644-1.1573.2912-2.4576-1.1971-1.2553-2.5355.7178-.8264,1.5462-.909,1.6405-2.1633.0784-1.0916-.7017-2.5769-.717-3.4947-.0217-.9573,1.4564-3.1366.6426-3.4965-.7684-.3261-1.1501,1.691-2.2799,1.8981-.9337.1781-1.8514-.8865-2.6827-.2832-1.3385.9582.3027,2.3156-.0147,3.6834-.2194.9525-1.313,1.6746-.9392,2.5793.4308,1.0167,2.6137-.1864,2.7246,1.9177.0883,1.9475-2.4799,2.1676-3.7967,3.0027-1.2781.8293-2.0641,2.5459-3.9262,2.9414-2.1364.4366-3.4423-2.1714-1.6034-3.8038,1.1313-1.0075,2.3756-.7114,3.2561-1.5223.6179-.6912,1.314-2.4749.9925-5.188-.1405-1.2196-1.1437-2.592-.4919-4.4086.6845-1.862,1.1675-1.5736,1.8405-3.5133.5357-1.5201-.2486-2.7644-.0486-4.1144.1947-1.3892,1.4072-1.8485,1.7439-3.8993.3151-1.9267-1.0552-1.724-1.846-.8468-.7903.8771-1.3449,3.0797-3.0674,3.3345s-3.28-2.1554-1.3135-4.0066c.9472-.9008,2.6716-.8756,3.585-1.7309Z" fill="#fff" stroke-width="0"/><path d="m47.8819,18.5107c.0881-2.6538,4.153-1.1348,3.9349-4.5034-.1052-2.065.1163-5.9789,3.8742-6.535,1.8403-.2723,3.1241,1.098,3.5249,2.9992,1.0826,4.8814-6.9763,9.6352-4.7381,11.7849,1.9126,1.8375,3.8672-3.6133,6.8426-4.0536,1.4095-.2086,3.0874.5832,3.3481,2.3452.255,1.7229-.7372,2.5899-1.7158,2.7347-1.1747.1738-1.449-.8661-2.5396-.6642-2.3369.4258-1.9594,4.331-5.0923,4.7946-2.7793.4113-3.7607-1.0842-3.9983-2.6893-.2723-1.8403.9314-2.899.7692-3.995-.1565-1.0573-1.1602-.2686-2.2856-.302-1.1313-.073-1.9852-.7068-1.9243-1.9162Zm7.977-7.7423c-1.0655-.4425-2.1207,3.5148-.9933,3.8282,1.2104.3407,2.3235-3.2249.9933-3.8282Z" fill="#fff" stroke-width="0"/><path d="m63.9872,10.8061c-.2492-1.6838,2.3234-2.1445,3.22-3.1172.8965-.9733,1.0754-3.2801,3.0326-3.5698,2.389-.3535,1.0934,3.5994,2.4428,3.7996,1.7591.2599,2.9939-2.4836,4.5879-2.7994,1.28-.2694,2.4354.2398,2.6285,1.812.1574,1.3371-.7256,1.5877-1.1488,3.0506-.4513,1.5471.5233,5.1641-1.6909,5.6117-1.3979.2868-1.9359-.914-1.6411-2.4379.1856-.9075,1.2841-2.9507-.6828-3.2599-1.5573-.2498-2.2702,1.4164-2.1969,2.7259.0521,1.4326.5263,2.2025.5649,3.2773.0347,1.3152-1.0329,3.8341-.0631,4.1704.9699.3368,2.5523-1.1378,3.984-1.4696,1.0453-.2346,1.5601.8096,1.4972,1.739-.0996,1.2152-.9063,2.2546-2.8394,2.9809-1.8944.7206-3.7087.6287-5.2215,1.4928-1.8085,1.0278-2.1891,1.9647-3.8227,2.2863-1.3583.281-2.4739-1.0343-1.8305-2.3699.8579-1.7677,2.2722-1.1363,3.3465-2.2559,1.0086-1.0293,1.5236-2.146,1.8589-4.4766.3354-2.3301-.1166-4.3037.1434-6.0629.2754-1.9214-1.0065-1.9316-1.7069-.9878-.6676.8989-1.1187,1.366-2.1756,1.5224s-2.0895-.331-2.2865-1.6622Z" fill="#fff" stroke-width="0"/><path d="m37.5108,34.5419c1.1227-.7254,1.4162-2.5211,2.6204-2.6993.9849-.1457,1.3078.7759,1.8939,1.2109.4608.342,1.0243.3707,1.3051,1.261.2446.8957-.3892,1.3997-.4162,2.224-.0276.8244.4374,1.9487.2979,3.2739-.1341,1.3619-1.3683,3.8561-1.4559,5.0251-.1017,1.5807,1.2667,2.012,2.3197.8123,1.1827-1.3305.5629-4.2586,1.7683-6.1893.8067-1.3499,2.4069-1.6237,2.9283-2.6333.522-1.0092-.3547-2.147.4817-3.7994.8678-1.6941,2.9353-2.3357,3.5689-.8262.343.8066-.5123,1.8281-.3882,2.6671.108.7298.7103,1.2745.721,2.3539-.0044,1.2312-.6825,2.1889-.5871,4.5984.0819,1.8147,2.0521,2.5296,2.8199.6637.6593-1.5887-.0348-2.7536.4494-4.0182.3447-.9459,1.2757-1.4563,1.6539-2.9294.3989-1.5872-.4058-4.0033.5673-5.4898.911-1.4024,2.5988-1.8382,3.6564-.9883.8902.7256,1.3714,1.9595.8079,2.9378-.6263,1.0616-1.3935,1.921-1.9047,3.003-.5625,1.2392.3374,2.7838-.1316,3.8972-.3864.9146-1.711,1.036-2.0596,2.2061-.2972,1.0134.1116,2.5186-.6978,3.3467-.6797.6968-1.6743,1.0306-2.2556,1.6388-.7781.7859-.8733,2.6643-2.4784,2.9019-1.35.1998-2.2737-1.0056-2.4735-2.3557-.189-1.2771.4421-2.3024.1722-4.1268-.2105-1.4225-1.5983-1.4782-2.4807-.6394-1.2664,1.2689-.968,3.5357-1.9816,5.2519-.476.8158-1.3502,1.2062-1.8262,2.0225-.5068.8578-.5492,2.84-2.3206,3.2142-1.4431.3251-2.7725-.5967-2.8517-1.8895-.0906-1.3662.4325-3.1213.2792-4.6644-.1106-1.2512-.9646-1.9822-1.0277-3.1659-.0663-1.7054,1.2532-3.8766,1.591-5.1196s-.6887-1.1286-1.062-.6257c-.3729.5024-1.5502,1.8696-2.7025,1.8911-1.1528.0215-3.1131-1.8879-1.0239-3.3901,1.1124-.7984,1.7811-.5622,2.2231-.8512Z" fill="#fff" stroke-width="0"/><path d="m67.9069,29.8204c2.6819-.7695,2.0884,1.5178,3.3898,1.9965,1.1388.3907,2.8228-.8279,3.9956.0425,1.0522.8132.8603,2.0347,1.3584,2.6322.6352.7634,1.0306,1.6743,1.0116,3.0567-.065,1.5753-.9409,2.7114-2.1311,3.4842-1.4609.9615-1.1385,1.8832-1.93,3.0818-.9639,1.2981-2.8937,2.3666-4.1665,2.3313-1.497-.0396-1.3888-1.3232-2.533-1.7501-1.0713-.4382-1.9297.0619-2.539-.7803-.6984-.9406-.5779-1.8904-.729-2.912-.162-1.0945-.9224-2.9579-.5938-4.0129.3637-1.3214,1.4464-1.8172,2.2747-3.0208.7407-1.042.1543-3.4904,2.5924-4.1493Zm-.1567,5.2425c-2.3187.4552-2.4387,6.6992-.0267,7.1251,2.3699.3946,3.1081-1.1682,4.5549-1.718,3.0865-1.3141,2.7454-4.8802.8336-5.4547-1.2539-.4112-1.692.6606-2.8297.5308-.9806-.079-1.6197-.6182-2.5321-.4832Z" fill="#fff" stroke-width="0"/><path d="m76.4336,31.504c-.2322-1.5689,2.1649-1.9981,3.0002-2.9045s1.0019-3.0565,2.8257-3.3264c2.2258-.3294,1.0185,3.3538,2.2762,3.5409,1.639.2422,2.7895-2.3141,4.2741-2.6083,1.1938-.2517,2.27.2229,2.4493,1.688.1478,1.2457-.6755,1.4791-1.07,2.8425-.4204,1.4418.488,4.8119-1.5748,5.2287-1.303.2673-1.8042-.8515-1.5296-2.2713.173-.846,1.1963-2.7497-.6361-3.0378-1.451-.2325-2.1158,1.3195-2.0472,2.5399.0485,1.3349.4903,2.0524.5264,3.0535.0323,1.2258-.9625,3.5724-.0587,3.8864.9038.3135,2.3782-1.0602,3.7116-1.3696.9746-.2187,1.4542.7542,1.3958,1.6203-.0931,1.1323-.8451,2.1009-2.6458,2.7776-1.765.6714-3.4554.5858-4.8649,1.3912-1.6851.9577-2.0402,1.8301-3.5621,2.1298-1.2658.2623-2.305-.9635-1.7059-2.2082.7998-1.6465,2.1174-1.0586,3.1185-2.1017.9395-.9594,1.4194-1.9993,1.7318-4.171.3125-2.1712-.1087-4.0102.1335-5.6492.2568-1.7903-.9377-1.8001-1.5903-.9202-.6219.8374-1.0423,1.2722-2.0272,1.418s-1.9469-.3082-2.1305-1.5486Z" fill="#fff" stroke-width="0"/><path d="m99.2288,15.2312c1.5484-.1171,1.1495,1.4706,1.4292,2.1.2842.6663,1.0113,1.0434,1.09,2.0757.1058,1.4755-1.3346,2.3224-1.6243,3.894-.1622.9189.1597,1.5796.0407,2.7902-.16,1.4403-1.9086,4.2342-1.9714,6.3314-.0261,1.0848.5466,1.9325.7862,2.7914.3133,1.1097-.414,2.7459.3249,3.4565.6493.6122,1.5819-.6443,2.8548-.6085,1.8734.0579,2.3184,2.5647.528,3.3144-1.0881.4591-1.9601.1035-2.981.5157-1.02.412-1.4555.9982-2.2724,1.2682-.8179.2701-1.3667.0907-2.1166.3132-.7498.223-1.4113,1.2903-2.685,1.2552-1.6478-.0548-1.6561-2.6257-.4028-3.4825,1.0503-.7147,3.0114-.5576,3.5959-1.6506.496-.9308-.7474-2.2755-.7105-3.2874.0368-1.0124.8537-1.2823.9694-2.2684.1892-1.7433-.5735-3.1216-.5301-4.8432.0488-1.685,1.9379-5.5436,2.5097-6.9703s-.5357-2.866-1.2748-1.5636c-.7705,1.3445-.9165,2.3726-1.6761,2.7831-.7962.4165-1.0231-.1092-1.5375.1905-.5511.3052-.8039.8648-1.342.7578-.9238-.1989-1.4249-2.3243.2003-3.6833,1.3615-1.1334,2.3317-1.1279,3.2869-1.9775,1.2826-1.1592,1.8501-3.3681,3.5086-3.502Z" fill="#fff" stroke-width="0"/><path d="m115.558,13.7098c.4832-1.2645,2.2087-1.4453,2.845-.421.5368.8525.3498,2.1107,1.0174,3.0929.6255.9514,2.4125,1.6934,2.7787,2.9068.4147,1.5418-1.1758,2.6346-2.347,2.025-1.0933-.5836-1.3826-3.0388-2.1779-2.623-1.0092.485.5443,2.4176.6815,3.8514.1327,1.397-.8992,1.7358-1.1629,3.2289-.1968,1.1851.7581,3.3553.4781,4.7389-.2649,1.2322-2.0857,3.2909-1.0171,4.2143.901.7986,2.1081-.8712,3.3052-1.347,1.5883-.6077,2.5023.7857,1.7156,2.0206-.4496.7373-1.7527,1.0047-2.7133,1.8181-1.6208,1.3954-2.5244,4.1017-3.7842,3.6543-1.5363-.5555.0834-3.2188-1.5738-3.8309-1.813-.6636-1.6956,2.8981-3.7021,3.195-1.3505.1998-2.2537-1.1206-3.2174-1.8354-.8794-.6527-1.5613-.4773-2.6654-1.1343-1.7999-1.0758-2.7675-5.8537.7204-8.2342.9456-.6617,1.5506-.6021,2.4658-1.2223,1.0816-.7563,1.8954-2.8156,3.8229-2.1314,2.5552.8895.9406,5.6024,2.948,5.3053,1.7138-.2536-.4392-5.2294-.453-7.0911-.0095-1.8254,1.0949-3.1818,1.525-4.8117.4097-1.5143-.1033-3.974.5105-5.3694Zm-5.7757,17.408c-.7541-.5597-1.0781-1.7418-2.2397-1.5329-1.3084.2311-1.5906,2.0997-1.4449,3.0846.1565,1.0578.6115,1.3637.8858,1.9568.3371.7705.3023,2.0432,1.3882,2.3297,2.3607.5826,4.5501-2.7612,3.714-4.1287-.5888-.9568-1.5914-1.1811-2.3034-1.7096Z" fill="#fff" stroke-width="0"/><path d="m127.2632,18.9868c2.0573-.4535,2.2353,1.7567,3.6096,2.2246,1.3797.5042,2.1243-.7615,3.451-.3616,2.2193.641,2.0731,3.6825.2859,3.947-.8762.1297-1.2176-.4161-1.854-.434-.7456-.0017-1.7472,1.0414-2.5272.5605-.7369-.4502-.1899-2.5445-1.4886-2.5014-2.1113.0888-1.0031,3.802,2.4737,4.3685,3.1269.4697,5.1082,2.5251,5.4483,4.8233.1944,1.3138.0862,2.5974-.9122,3.1553-.7543.4468-1.4392.1009-1.9622.8496-.5339.6753-.9285,3.0452-2.9512,3.2324-2.2052.2148-2.2892-1.8607-3.5068-2.2768-1.0654-.4016-2.3329.6058-3.7353-.3051-2.0678-1.3718-.7363-5.2224,1.672-4.5718,1.4413.4205,1.0597,2.3783,2.3032,2.716.9713.2664,1.0741-1.0538,2.2053-1.2212s1.3603.8802,2.6676.3886c1.2026-.4391,1.2721-4.252-1.3079-4.8027-2.0723-.4017-6.7432.0289-7.2075-3.1088-.2915-1.9702,1.0527-2.2062,1.5109-3.3925.376-.988-.0148-2.8686,1.8252-3.2899Z" fill="#fff" stroke-width="0"/><path d="m9.7796,30.9828c3.1487-.4659,5.323-3.3978,4.8569-6.5475s-3.3955-5.3213-6.5442-4.8554-5.3236,3.3938-4.8576,6.5425,3.3962,5.3262,6.545,4.8603" fill="#fff" stroke-width="0"/><path d="m110.061,38.7584c2.9974-.4435,5.0665-3.2456,4.621-6.2558-.4449-3.0063-3.2368-5.089-6.2342-4.6455s-5.0665,3.2456-4.6216,6.2519c.4454,3.0102,3.2374,5.093,6.2348,4.6494" fill="#fff" stroke-width="0"/><path d="m9.588,20.3447l.7625,5.1529.6222-.8371-.4586-3.0992c-.0817-.552.2983-1.0651.8503-1.1468.551-.0815,1.0643.2994,1.146.8514l.1903,1.286c.8488-.5896,2.0129-.6062,2.8874.0428,1.0959.8133,1.3257,2.3664.5123,3.4623-.3589.4848-1.0444.5862-1.5292.2273-.4849-.3599-.5863-1.0454-.2265-1.5303.0944-.1272.0675-.3092-.0597-.4036-.1283-.0952-.3094-.0685-.4036.0597l-.7552,1.0175.4132,2.7926c.0817.552-.2993,1.0653-.8503,1.1468-.552.0817-1.0643-.2994-1.146-.8514l-.148-1.0001c-.2314.103-.4921.1244-.7378.0556l.3518,2.3771c.0815.551-.2994,1.0643-.8504,1.1458-.552.0817-1.0653-.2993-1.1468-.8503l-.7626-5.1539-.621.8379.4586,3.0992c.0817.552-.2993,1.0653-.8503,1.1468-.552.0817-1.0653-.2993-1.147-.8513l-.1901-1.285c-.3098.2157-.6654.3603-1.0502.4172-.6539.0968-1.3069-.0674-1.8373-.461-.5474-.4062-.8796-.998-.9724-1.6252s.0538-1.2898.4599-1.8381c.36-.4839,1.0446-.5852,1.5293-.2263.4851.3609.5863,1.0454.2265,1.5303-.0944.1272-.0676.3082.0597.4036.0793.058.1607.0611.2141.0532.0544-.0081.1314-.0346.1895-.113l.7552-1.0175-.4132-2.7926c-.0817-.552.2993-1.0653.8513-1.147.551-.0815,1.0643.2994,1.146.8514l.148,1.0001c.2314-.103.4911-.1242.737-.0545l-.3519-2.3781c-.0815-.551.2994-1.0643.8514-1.146.551-.0815,1.0643.2994,1.1458.8504" fill="#29dcc3" stroke-width="0"/><path d="m14.3147,24.3006c.1179.1342.1467.3291.0729.4926-.8239,1.8172-2.5217,3.1935-4.6426,3.5074s-4.1436-.512-5.4586-2.0137c-.1189-.134-.1477-.3289-.0728-.4917.8239-1.8172,2.5207-3.1934,4.6416-3.5072s4.1436.512,5.4594,2.0125" fill="#fff" stroke-width="0"/><path d="m11.3497,26.8153c.8403-1.1322.6038-2.7308-.5284-3.5711-1.1321-.8393-2.7306-.6028-3.5711.5284-.8393,1.132-.6028,2.7306.5284,3.5711,1.1322.8403,2.7308.6038,3.5711-.5284" fill="#eb2d6d" stroke-width="0"/><path d="m10.322,26.0526c.4189-.5644.3009-1.3617-.2635-1.7806-.5644-.4189-1.3617-.3009-1.7806.2635-.4189.5644-.3009,1.3617.2635,1.7806.5644.4189,1.3617.3009,1.7806-.2635" fill="#262753" stroke-width="0"/><path d="m110.3741,27.7259l.7625,5.1529.6222-.8371-.4586-3.0992c-.0817-.552.2983-1.0651.8503-1.1468.551-.0815,1.0643.2994,1.146.8514l.1903,1.286c.8488-.5896,2.013-.6062,2.8874.0428,1.0959.8133,1.3257,2.3664.5123,3.4623-.3589.4848-1.0444.5862-1.5292.2273-.4849-.3599-.5864-1.0454-.2265-1.5303.0944-.1272.0675-.3092-.0597-.4036-.1283-.0952-.3094-.0685-.4036.0597l-.7552,1.0175.4132,2.7926c.0817.552-.2993,1.0653-.8503,1.1468-.552.0817-1.0643-.2994-1.146-.8514l-.148-1.0001c-.2314.103-.4921.1244-.7378.0556l.3518,2.3771c.0815.551-.2994,1.0643-.8504,1.1458-.552.0817-1.0653-.2993-1.1468-.8503l-.7626-5.1539-.621.8379.4586,3.0992c.0817.552-.2993,1.0653-.8503,1.1468-.552.0817-1.0653-.2993-1.147-.8513l-.1901-1.285c-.3098.2157-.6654.3603-1.0502.4172-.6539.0968-1.307-.0674-1.8373-.461-.5474-.4062-.8796-.998-.9724-1.6252s.0538-1.2898.4599-1.8381c.36-.4839,1.0446-.5852,1.5293-.2263.4851.3609.5863,1.0454.2265,1.5303-.0944.1272-.0676.3082.0597.4036.0793.058.1607.0611.2141.0532.0544-.008.1313-.0346.1895-.113l.7552-1.0175-.4132-2.7926c-.0817-.552.2993-1.0653.8513-1.147.551-.0815,1.0643.2994,1.146.8514l.148,1.0001c.2304-.1028.4911-.1242.7368-.0554l-.3518-2.3771c-.0815-.551.2994-1.0643.8514-1.146.551-.0815,1.0643.2994,1.1458.8504" fill="#eb2d6d" stroke-width="0"/><path d="m115.1008,31.6818c.1179.1342.1467.3291.0729.4926-.8249,1.8173-2.5217,3.1935-4.6426,3.5074s-4.1436-.512-5.4586-2.0137c-.1189-.134-.1477-.3289-.0728-.4917.8239-1.8172,2.5207-3.1934,4.6416-3.5072s4.1436.512,5.4594,2.0125" fill="#fff" stroke-width="0"/><path d="m112.1358,34.1964c.8403-1.1322.6038-2.7308-.5284-3.5711-1.1321-.8393-2.7307-.6028-3.5711.5284-.8403,1.1322-.6038,2.7308.5284,3.5711,1.1322.8403,2.7308.6038,3.5711-.5284" fill="#29dcc3" stroke-width="0"/><path d="m111.1082,33.4337c.4189-.5644.3009-1.3617-.2635-1.7806-.5644-.4189-1.3617-.3009-1.7806.2635-.4189.5644-.3009,1.3617.2635,1.7806.5644.4189,1.3617.3009,1.7806-.2635" fill="#262753" stroke-width="0"/></svg>