<?xml version="1.0" encoding="utf-8"?>
<!-- Generator: Adobe Illustrator 28.0.0, SVG Export Plug-In . SVG Version: 6.00 Build 0)  -->
<svg version="1.1" id="Layer_1" xmlns="http://www.w3.org/2000/svg" xmlns:xlink="http://www.w3.org/1999/xlink" x="0px" y="0px"
	 viewBox="0 0 20 20" style="enable-background:new 0 0 20 20;" xml:space="preserve">
<style type="text/css">
	.st0{fill:#33386D;}
	.st1{fill:#37E2D2;}
</style>
<path class="st0" d="M7.1,14.3l2.9-2.9l2.9,2.9c0.4,0.4,1,0.4,1.4,0l0,0c0.4-0.4,0.4-1,0-1.4L11.4,10l2.9-2.9c0.4-0.4,0.4-1,0-1.4
	l0,0c-0.4-0.4-1-0.4-1.4,0L10,8.6L7.1,5.7c-0.4-0.4-1-0.4-1.4,0l0,0c-0.4,0.4-0.4,1,0,1.4L8.6,10l-2.9,2.9c-0.4,0.4-0.4,1,0,1.4l0,0
	C6.1,14.7,6.7,14.7,7.1,14.3z"/>
<path class="st1" d="M10,20c-1.4,0-2.7-0.3-3.9-0.8S3.8,18,2.9,17.1c-0.9-0.9-1.6-2-2.1-3.2S0,11.4,0,10c0-1.4,0.3-2.7,0.8-3.9
	S2,3.8,2.9,2.9s2-1.6,3.2-2.1S8.6,0,10,0c1.4,0,2.7,0.3,3.9,0.8s2.3,1.2,3.2,2.1c0.9,0.9,1.6,2,2.1,3.2S20,8.6,20,10
	c0,1.4-0.3,2.7-0.8,3.9s-1.2,2.3-2.1,3.2c-0.9,0.9-2,1.6-3.2,2.1S11.4,20,10,20z M10,18c2.2,0,4.1-0.8,5.7-2.3S18,12.2,18,10
	c0-2.2-0.8-4.1-2.3-5.7S12.2,2,10,2C7.8,2,5.9,2.8,4.3,4.3S2,7.8,2,10c0,2.2,0.8,4.1,2.3,5.7S7.8,18,10,18z"/>
</svg>
